PathFileType	4	(X/Y/Z)	Patient4_TMGait_0pt2_03_left_20.trc.trc
DataRate	CameraRate	NumFrames	NumMarkers	Units	OrigDataRate	OrigDataStartFrame	OrigNumFrames
48.275862068966	48.275862068966	5	33	mm	48.275862068966	89	       141
Frame#	Time	Sacral			L.Shoulder			Chest			R.Shoulder			Neck			R.ASIS			L.ASIS			R.Thigh.Superior			R.Thigh.Lateral			R.Thigh.Inferior			R.Patella			L.Thigh.Superior			L.Thigh.Lateral			L.Thigh.Inferior			L.Patella			L.Shank.Superior			L.Shank.Lateral			L.Shank.Inferior			R.Shank.Superior			R.Shank.Lateral			R.Shank.Inferior			R.Heel			R.Midfoot.Superior			R.Midfoot.Lateral			R.Toe			L.Heel			L.Midfoot.Lateral			L.Midfoot.Superior			L.Toe			L.Elbow			L.Wrist			R.Elbow			R.Wrist			
		X1	Y1	Z1	X2	Y2	Z2	X3	Y3	Z3	X4	Y4	Z4	X5	Y5	Z5	X6	Y6	Z6	X7	Y7	Z7	X8	Y8	Z8	X9	Y9	Z9	X10	Y10	Z10	X11	Y11	Z11	X12	Y12	Z12	X13	Y13	Z13	X14	Y14	Z14	X15	Y15	Z15	X16	Y16	Z16	X17	Y17	Z17	X18	Y18	Z18	X19	Y19	Z19	X20	Y20	Z20	X21	Y21	Z21	X22	Y22	Z22	X23	Y23	Z23	X24	Y24	Z24	X25	Y25	Z25	X26	Y26	Z26	X27	Y27	Z27	X28	Y28	Z28	X29	Y29	Z29	X30	Y30	Z30	X31	Y31	Z31	X32	Y32	Z32	X33	Y33	Z33	

89	43.702857142857	886.151095726617	1020.733541162949	563.788303841433	1131.667194537864	1429.954332181598	404.878214285726	1212.230823193290	1342.841842667247	569.123010013295	1128.600042592801	1425.483290259786	738.239345901575	1123.142434221912	1488.833255679904	559.914093342964	1109.065738633798	930.343288015338	682.211871927783	1098.506913355467	961.707072595539	406.766484109315	1157.113283923141	743.002295049783	637.948689592708	1090.148807063786	629.744308359626	705.130860426632	1162.716483255268	581.607519709941	616.893781638576	1171.917557458172	492.244050940838	623.009917877260	1112.908968651838	736.623625915155	420.300420647756	1001.086176545394	630.065694726567	342.715958161832	1086.072996479729	544.431566188867	400.281799622596	1077.848198892443	470.212905960449	398.710957323485	1026.661379536232	410.287255245992	384.855982797837	907.082286760199	335.205531212864	321.352185330895	921.135313323983	205.080625823854	375.269624256995	1140.053030407113	403.203364698123	634.909128750981	1076.631493880910	303.788351790109	711.596304154188	1102.034624993343	205.886911140372	644.599884011331	958.375730008516	45.073944960456	646.675160301692	1133.656342924913	96.887543704167	651.196196220465	1053.375253049302	37.953926275351	704.999272945606	1257.013548294279	43.335948316830	658.330245399740	753.468346835867	81.634186940506	395.369951566507	830.765575081643	61.215631916248	321.477366268685	923.311156069937	105.617712825839	352.342000630519	1038.680771312034	36.874527327933	332.791630697241	1130.277097516968	1088.941405357104	258.888541153853	1314.846254516371	922.479566774131	328.613136783416	1024.731852398585	1104.522311951166	876.725965413139	1165.366910204539	887.903056368703	903.078894981956	
90	43.723571428571	887.652761743872	1021.473925241296	569.719655985972	1131.138706790081	1430.939973587455	409.068926052672	1213.119564352822	1344.036266048894	572.772409803191	1130.744622484074	1426.708181808130	742.487800008321	1123.593883853945	1489.950657033534	564.215772048687	1111.137491918548	931.182937139610	686.849303977884	1099.348943705939	962.769492053137	412.053939061532	1157.205675442408	742.399211130805	642.449493098898	1088.971212166012	629.624258031382	708.970003949512	1160.723934776730	581.155232278082	620.288631435815	1168.944710465984	491.963823553970	625.811079411372	1117.477678107967	739.389034252832	424.363067026139	1007.797683318283	631.116449449450	346.343242368920	1095.114004543342	546.439613400073	403.064254736935	1087.656182233221	470.898976958314	400.358415431075	1034.462042350348	411.564120460487	386.594362880397	912.703717258398	340.157774781011	323.106017698690	923.899982265625	209.155302017949	375.283537849221	1136.963211812891	403.161533670793	637.109824349987	1073.454829848373	303.375474304673	713.139591251499	1098.528000171404	205.888939237103	645.408003056169	954.431828650715	45.158386388642	646.735067783221	1129.764247869025	96.811295018047	651.278695524496	1049.434852172813	37.968088436559	704.988715053577	1253.101121962853	42.991853392884	658.394497084239	753.014071089103	91.762580127836	394.811204125940	829.259894039164	67.693711364577	321.159004678809	923.482030617326	108.086513618699	351.757555740750	1035.147895428232	36.205417781682	332.946103573801	1120.818410124459	1088.780451551854	264.839355555762	1287.953632202842	901.221914776327	327.710239448737	1036.590670523473	1105.153505717591	886.481783028931	1188.409230924110	896.334596833191	911.618125312934	
91	43.744285714286	888.925003735589	1021.956085928141	575.498235855140	1130.159729626422	1431.694110056558	412.854365397164	1213.661912245372	1345.108284669165	575.992682636233	1132.607549854710	1427.886609673558	746.333342761311	1123.697877048071	1490.899686848082	568.078217137147	1113.051744847856	931.940553065780	691.272667063885	1099.914976943005	963.686232721383	417.081054820561	1157.361964157685	741.815935170071	646.657355538164	1088.003225205510	629.435914205975	712.537046584083	1158.971228307996	580.705565186513	623.424043354188	1166.290883886636	491.627186988164	628.364289649788	1122.650198702036	742.415984633939	428.588891651667	1015.879392599007	632.076365509095	349.993259948765	1105.644528626909	548.725352131155	406.187296833202	1099.082916963567	471.753574083566	402.300833865628	1043.823202025639	412.908481105808	388.501449146572	919.931635458362	345.518823247061	324.894058975254	927.793042437018	213.741945764675	375.339343589312	1134.104282407123	403.069797137381	639.121768897999	1070.422084318163	303.006206849776	714.533085407707	1095.095125448466	205.892002895739	646.118513937145	950.436469638245	45.312932391649	646.749310038334	1125.846762001072	96.752201256283	651.324266239673	1045.433491489903	38.017898581481	704.940564611844	1249.125319995450	42.640122655939	658.447322876925	753.599803436540	103.457451540418	394.162940615373	828.445840094379	75.363734295517	320.782041456282	924.321688620613	111.041051344966	351.175387063116	1031.556114308665	35.348934348928	333.166508836743	1110.590802130568	1088.602005883692	270.705080561875	1258.340720920896	882.233937009157	326.063250123605	1048.429617036291	1105.871909397747	895.504908916194	1211.412860050521	905.711019776437	918.796895808060	
92	43.765000000000	889.985876912666	1022.139281657411	581.140752577581	1128.727391750862	1432.192755767022	416.251228535411	1213.850686286537	1346.025931187947	578.798194939140	1134.162439236573	1428.963164071855	749.785235836416	1123.446591270131	1491.646961437143	571.518017724340	1114.846653527874	932.605141373083	695.498661985468	1100.192676718768	964.401596213590	421.844112020793	1157.683498445118	741.258951469391	650.567167850735	1087.373917609528	629.151461722337	715.816895723773	1157.597442280339	580.254342315995	626.278879977691	1164.120517744980	491.199358675560	630.639927909131	1128.310528880166	745.659153830870	433.025243361491	1025.190351276124	633.018196566722	353.671113523333	1117.439339563574	551.329783690854	409.688166016460	1111.906335481568	472.864185360939	404.589369420817	1054.580477289221	414.381743747722	390.598375808133	928.641711317593	351.292911628011	326.762445472158	932.792671914285	218.862551674334	375.487992880010	1131.598693900932	402.891301057405	640.917121200881	1067.628086976058	302.664395349054	715.758876198521	1091.784551647706	205.873669436096	646.718424045354	946.395672821438	45.533560231421	646.720898506433	1121.910160070499	96.714118939651	651.336767386655	1041.376559043521	38.104887111611	704.860240275147	1245.094316275657	42.288987396851	658.497828191479	755.333781352388	116.667180170523	393.529444052948	828.393667729963	84.241301505966	320.421184242961	925.835135656960	114.509934694383	350.650482633754	1027.895673985055	34.299189997145	333.443626518447	1099.576096498856	1088.443780551639	276.444186090334	1226.479797220669	865.928445018236	323.939128068465	1060.169751163552	1106.581322594681	903.657600345838	1234.246348014060	916.032457721466	924.515359060516	
93	43.785714285714	890.859028128504	1021.986504157139	586.655168615654	1126.848845634583	1432.419688275414	419.284577784940	1213.683393835864	1346.763363742788	581.214073960719	1135.381510226417	1429.880722226712	752.859818647685	1122.828998750692	1492.163389851222	574.562173569798	1116.558050711955	933.162166875644	699.544630713151	1100.197542553063	964.867980279312	426.350319171314	1158.255449345473	740.722563918341	654.182420737663	1087.187731801031	628.737900137457	718.803435393702	1156.717035936716	579.788180756663	628.839376359841	1162.562602292168	490.643887390759	632.618432581278	1134.310795637113	749.062073995952	437.704104333427	1035.526349934178	634.010196255927	357.372195060923	1130.207463252970	554.275192525080	413.582098250965	1125.840470365543	474.299045252052	407.250455083579	1066.500050788631	416.033718359077	392.897220227014	938.622293796085	357.452770600526	328.774818519843	938.823266357008	224.493963800982	375.796645096571	1129.544575403819	402.586470286360	642.476876379167	1065.151829428529	302.327481191512	716.808889416988	1088.636591288604	205.809218961620	647.202673473433	942.321766302316	45.811716723362	646.658074606466	1117.963088332036	96.697996542187	651.322519577636	1037.276815444492	38.226444414527	704.757012776818	1241.020837246846	41.948086774924	658.551028231015	758.268289334565	131.193289155825	393.068557750836	829.143629421626	94.242988504998	320.186601439280	928.005510862321	118.491143264951	350.253238019992	1024.198106711692	33.088424028049	333.751446992848	1087.802337780900	1088.356693234586	282.011445419943	1192.966978973844	852.571849932338	321.654662413294	1071.769495905337	1107.177285741952	910.823896616996	1256.785010493046	927.297911575182	928.696872045529	
